<svg id="Layer_1" data-name="Layer 1" xmlns="http://www.w3.org/2000/svg" viewBox="0 0 259.8 98.97"><defs><style>.cls-1{fill:#2b2241}.cls-2{fill:#93cd88}.cls-3{font-size:50px;fill:#3f3931;font-family:Lato-Thin,Lato}.cls-4{letter-spacing:-.1em}</style></defs><title>logo</title><path class="cls-1" d="M45.84 60.78a1.84 1.84 0 0 0-1.11 1.16 8.73 8.73 0 0 0-.3 2.7V89.1a8.71 8.71 0 0 0 .3 2.7 1.84 1.84 0 0 0 1.11 1.2 8.76 8.76 0 0 0 2.59.39v1q-2.31-.14-6.26-.14-4.24 0-6.31.14v-1a8.61 8.61 0 0 0 2.58-.39 1.84 1.84 0 0 0 1.1-1.16 8.73 8.73 0 0 0 .3-2.7V62.71L28 94.57h-.79l-12.42-32v26a9.19 9.19 0 0 0 .34 2.87 2.29 2.29 0 0 0 1.26 1.38 8.11 8.11 0 0 0 2.88.49v1q-1.76-.14-5-.14-2.94 0-4.57.14v-1a6.49 6.49 0 0 0 2.54-.49 2.26 2.26 0 0 0 1.14-1.38 9.88 9.88 0 0 0 .31-2.87v-24a8.72 8.72 0 0 0-.3-2.7 1.84 1.84 0 0 0-1.11-1.16 8.76 8.76 0 0 0-2.59-.39v-1q1.61.14 4.57.15 2.6 0 4.21-.15L29.24 88l10.59-28.44h2.34q3.95 0 6.26-.15v1a8.76 8.76 0 0 0-2.59.37zm40 32.56v1q-2-.14-5.3-.14-4.21 0-6.31.14v-1a7.4 7.4 0 0 0 2.68-.46 1.39 1.39 0 0 0 .81-1.37 6.82 6.82 0 0 0-.58-2.31l-3-8.09H62.22l-2 5.22a11.72 11.72 0 0 0-1 4 2.46 2.46 0 0 0 1 2.24 6.37 6.37 0 0 0 3.24.72v1q-2.82-.14-5.68-.14-2.22 0-3.68.14v-1q2.46-.55 3.88-4.29l11.63-29.83h.79l12 31q1.23 3.07 3.44 3.17zm-17.6-27.93l-5.66 14.71h11.17zM99.1 89.1a6.93 6.93 0 0 0 .38 2.7 2.13 2.13 0 0 0 1.4 1.16 13.34 13.34 0 0 0 3.2.39v1q-2.55-.14-7.25-.14-4.24 0-6.31.14v-1a8.76 8.76 0 0 0 2.6-.35 1.84 1.84 0 0 0 1.11-1.16 8.71 8.71 0 0 0 .3-2.7v-24.5a8.72 8.72 0 0 0-.3-2.7 1.84 1.84 0 0 0-1.11-1.16 8.76 8.76 0 0 0-2.59-.39v-1q2 .14 6 .15l5.35-.07h2.09a15.78 15.78 0 0 1 6.55 1.22 8.8 8.8 0 0 1 4 3.41 9.61 9.61 0 0 1 1.34 5.1 11.87 11.87 0 0 1-1.2 5.2 9.71 9.71 0 0 1-4.11 4.17 15.37 15.37 0 0 1-7.67 1.66H99.1zm1.35-28.35A1.94 1.94 0 0 0 99.39 62a9.15 9.15 0 0 0-.29 2.65v14.58h3.32q4.82 0 6.67-2.58a11.64 11.64 0 0 0 1.85-6.93 14.23 14.23 0 0 0-.82-5.23 6 6 0 0 0-2.61-3.07 9.57 9.57 0 0 0-4.76-1 5.85 5.85 0 0 0-2.3.33z" transform="translate(-9.61 -8.41)"/><path class="cls-2" d="M2.47 32.76l-2.29-2.6L26.16 7.23l22.67 14.41-1.86 2.92-20.47-13-24.03 21.2z"/><path class="cls-2" transform="rotate(-33.69 38.381 42.214)" d="M55.33 28.81h3.47v3.47h-3.47z"/><path class="cls-2" d="M64.75 27.51l-1.92-2.88 5.28-3.52L70 24zm10.56-7l-1.92-2.88 5.28-3.51L80.58 17z" transform="translate(-9.61 -8.41)"/><path class="cls-2" transform="rotate(-33.69 67.649 22.718)" d="M84.6 9.31h3.47v3.47H84.6z"/><path class="cls-2" d="M78 8.2l-3.34-.9 1.01-3.78-3.61.04L72.02.1l8.19-.1L78 8.2z"/><text class="cls-3" transform="translate(117.08 85.92)"><tspan class="cls-4">Y</tspan><tspan x="23.85" y="0">emen</tspan></text></svg>